# xmcd
#
# Track frame offsets:
#	150
#	15847
#	34907
#	48935
#	63141
#	80241
#	96937
#	112529
#	124242
#	137194
#	151214
#	169145
#	189127
#	205826
#	220656
#	238602
#	254427
#	271819
#	286995
#
# Disc length: 4024 seconds
#
# Revision: 4
# Processed by: cddbd v1.5.1PL0 Copyright (c) Steve Scherf et al.
# Submitted via: audiograbber 1.83.01
#
DISCID=fc0fb613
DTITLE=2003-06 Country Radio - 2003-06 Country Radio
DYEAR=2003
DGENRE=Country
TTITLE0=Kenny Chesney - No Shoes, No Shirt, No Problem
TTITLE1=Tim McGraw - Real Good Man
TTITLE2=Faith Hill - You're Still Here
TTITLE3=Michael David Cook - Second Wind
TTITLE4=Buddy Jewell - Help Pour Out The Rain (Lacey's Song)
TTITLE5=Chad Brock - It's A Woman Thing
TTITLE6=Jeff Carson - I Can Only Imagine
TTITLE7=John Michael Montgomery - Four-Wheel Drive
TTITLE8=Jamie O'Neal - Everything Little Thing
TTITLE9=Dwight Yoakam - The Back Of Your Hand
TTITLE10=Pat Green - Wave On Wave
TTITLE11=Sherrie Austin - Streets Of Heaven
TTITLE12=Deric Rutton - When You Come Around
TTITLE13=Colt Prather - The Dash
TTITLE14=Josh Turner - Long Black Train
TTITLE15=Rhonda Vincent - You Can't Take It With You When You Go
TTITLE16=Clint Daniels - The Letter (Almost Home)
TTITLE17=Juice Newton - Keepers Of The Peace
TTITLE18=Cledus T. Judd - 270 Somethin'
EXTD=
EXTT0=
EXTT1=
EXTT2=
EXTT3=
EXTT4=
EXTT5=
EXTT6=
EXTT7=
EXTT8=
EXTT9=
EXTT10=
EXTT11=
EXTT12=
EXTT13=
EXTT14=
EXTT15=
EXTT16=
EXTT17=
EXTT18=
PLAYORDER=
